G04 #@! TF.GenerationSoftware,KiCad,Pcbnew,(5.1.9)-1*
G04 #@! TF.CreationDate,2021-03-27T09:55:19-04:00*
G04 #@! TF.ProjectId,atmega32u4_demo,61746d65-6761-4333-9275-345f64656d6f,rev?*
G04 #@! TF.SameCoordinates,Original*
G04 #@! TF.FileFunction,Legend,Bot*
G04 #@! TF.FilePolarity,Positive*
%FSLAX46Y46*%
G04 Gerber Fmt 4.6, Leading zero omitted, Abs format (unit mm)*
G04 Created by KiCad (PCBNEW (5.1.9)-1) date 2021-03-27 09:55:19*
%MOMM*%
%LPD*%
G01*
G04 APERTURE LIST*
%ADD10C,0.120000*%
%ADD11C,1.350000*%
%ADD12R,1.700000X1.700000*%
%ADD13O,1.700000X1.700000*%
%ADD14C,4.101600*%
%ADD15C,3.101600*%
%ADD16C,1.901600*%
%ADD17O,1.000000X2.100000*%
%ADD18C,0.650000*%
%ADD19O,1.000000X1.600000*%
%ADD20C,0.990600*%
G04 APERTURE END LIST*
D10*
X217728800Y-83096200D02*
X222593800Y-83096200D01*
X211593800Y-78996200D02*
X222593800Y-78996200D01*
X211593800Y-84986200D02*
X211593800Y-78996200D01*
X215149498Y-84986200D02*
X211593800Y-84986200D01*
X222593800Y-78996200D02*
X222593800Y-83096200D01*
X215150419Y-84983289D02*
G75*
G02*
X217728800Y-83096200I2578381J-817911D01*
G01*
%LPC*%
D11*
X221431800Y-105090600D03*
X221431800Y-102590600D03*
X221431800Y-100090600D03*
X223931800Y-105090600D03*
X223931800Y-102590600D03*
X223931800Y-100090600D03*
D12*
X202615800Y-88900000D03*
D13*
X225552000Y-111226600D03*
X225552000Y-108686600D03*
X223012000Y-111226600D03*
X223012000Y-108686600D03*
X220472000Y-111226600D03*
X220472000Y-108686600D03*
X217932000Y-111226600D03*
X217932000Y-108686600D03*
X215392000Y-111226600D03*
X215392000Y-108686600D03*
X212852000Y-111226600D03*
X212852000Y-108686600D03*
X210312000Y-111226600D03*
G36*
G01*
X210908700Y-109536600D02*
X209715300Y-109536600D01*
G75*
G02*
X209462000Y-109283300I0J253300D01*
G01*
X209462000Y-108089900D01*
G75*
G02*
X209715300Y-107836600I253300J0D01*
G01*
X210908700Y-107836600D01*
G75*
G02*
X211162000Y-108089900I0J-253300D01*
G01*
X211162000Y-109283300D01*
G75*
G02*
X210908700Y-109536600I-253300J0D01*
G01*
G37*
X186055000Y-100965000D03*
X186055000Y-98425000D03*
X186055000Y-95885000D03*
X186055000Y-93345000D03*
X186055000Y-90805000D03*
D12*
X186055000Y-88265000D03*
G36*
G01*
X211704238Y-84562000D02*
X209583362Y-84562000D01*
G75*
G02*
X209318000Y-84296638I0J265362D01*
G01*
X209318000Y-82225762D01*
G75*
G02*
X209583362Y-81960400I265362J0D01*
G01*
X211704238Y-81960400D01*
G75*
G02*
X211969600Y-82225762I0J-265362D01*
G01*
X211969600Y-84296638D01*
G75*
G02*
X211704238Y-84562000I-265362J0D01*
G01*
G37*
G36*
G01*
X224631238Y-82022000D02*
X222510362Y-82022000D01*
G75*
G02*
X222245000Y-81756638I0J265362D01*
G01*
X222245000Y-79685762D01*
G75*
G02*
X222510362Y-79420400I265362J0D01*
G01*
X224631238Y-79420400D01*
G75*
G02*
X224896600Y-79685762I0J-265362D01*
G01*
X224896600Y-81756638D01*
G75*
G02*
X224631238Y-82022000I-265362J0D01*
G01*
G37*
D14*
X217728800Y-85801200D03*
D15*
X213918800Y-83261200D03*
X220268800Y-80721200D03*
D16*
X212648800Y-85801200D03*
X222808800Y-85801200D03*
D13*
X215087200Y-103378000D03*
X215087200Y-100838000D03*
D12*
X215087200Y-98298000D03*
D17*
X190879000Y-82428800D03*
X199519000Y-82428800D03*
D18*
X198089000Y-81898800D03*
D19*
X199519000Y-78248800D03*
D18*
X192309000Y-81898800D03*
D19*
X190879000Y-78248800D03*
D20*
X192074800Y-99847400D03*
X191058800Y-104927400D03*
X193090800Y-104927400D03*
M02*
