M48
; DRILL file {KiCad (5.1.9)-1} date 03/27/21 09:55:23
; FORMAT={-:-/ absolute / inch / decimal}
; #@! TF.CreationDate,2021-03-27T09:55:23-04:00
; #@! TF.GenerationSoftware,Kicad,Pcbnew,(5.1.9)-1
; #@! TF.FileFunction,Plated,1,2,PTH
FMAT,2
INCH
T1C0.0157
T2C0.0236
T3C0.0354
T4C0.0394
%
G90
G05
T1
X7.397Y-4.299
X7.452Y-3.981
X7.457Y-4.19
X7.485Y-4.031
X7.52Y-3.7
X7.5885Y-3.3485
X7.605Y-3.875
X7.65Y-4.062
X7.672Y-4.099
X7.687Y-3.507
X7.687Y-3.7
X7.72Y-4.046
X7.764Y-4.039
X7.783Y-3.349
X7.795Y-3.648
X7.867Y-4.131
X7.868Y-3.871
X7.945Y-3.953
X7.951Y-3.812
X7.951Y-4.057
X7.953Y-3.769
X7.966Y-3.714
X7.969Y-3.648
X8.0Y-4.009
X8.001Y-3.682
X8.031Y-3.635
X8.048Y-3.953
X8.055Y-4.064
X8.079Y-3.651
X8.132Y-3.868
X8.171Y-3.759
X8.203Y-3.79
X8.237Y-3.916
X8.241Y-3.815
X8.244Y-4.042
X8.262Y-3.983
X8.278Y-3.846
X8.282Y-3.947
X8.282Y-4.024
T3
X8.7178Y-3.9406
X8.7178Y-4.039
X8.7178Y-4.1374
X8.8162Y-3.9406
X8.8162Y-4.039
X8.8162Y-4.1374
T4
X7.325Y-3.475
X7.325Y-3.575
X7.325Y-3.675
X7.325Y-3.775
X7.325Y-3.875
X7.325Y-3.975
X7.977Y-3.5
X8.28Y-4.279
X8.28Y-4.379
X8.38Y-4.279
X8.38Y-4.379
X8.468Y-3.87
X8.468Y-3.97
X8.468Y-4.07
X8.48Y-4.279
X8.48Y-4.379
X8.58Y-4.279
X8.58Y-4.379
X8.68Y-4.279
X8.68Y-4.379
X8.78Y-4.279
X8.78Y-4.379
X8.88Y-4.279
X8.88Y-4.379
T2
G00X7.5149Y-3.0925
M15
G01X7.5149Y-3.0689
M16
G05
G00X7.5149Y-3.2669
M15
G01X7.5149Y-3.2236
M16
G05
G00X7.8551Y-3.0925
M15
G01X7.8551Y-3.0689
M16
G05
G00X7.8551Y-3.2669
M15
G01X7.8551Y-3.2236
M16
G05
T0
M30
